<?xml version="1.0" standalone="no"?>
<!DOCTYPE svg PUBLIC "-//W3C//DTD SVG 20010904//EN"
 "http://www.w3.org/TR/2001/REC-SVG-20010904/DTD/svg10.dtd">
<svg version="1.0" xmlns="http://www.w3.org/2000/svg"
 width="1080.000000pt" height="1080.000000pt" viewBox="0 0 1080.000000 1080.000000"
 preserveAspectRatio="xMidYMid meet">

<g transform="translate(0.000000,1080.000000) scale(0.100000,-0.100000)"
fill="#000000" stroke="none">
<path d="M5308 10701 c-48 -4 -89 -9 -92 -12 -3 -3 9 -216 26 -475 36 -541 35
-555 -33 -629 -61 -66 -119 -86 -253 -88 -102 -1 -115 1 -163 26 -28 14 -61
40 -72 56 -46 64 -52 102 -85 589 -18 259 -35 475 -39 478 -3 3 -59 2 -124 -2
l-118 -9 2 -35 c2 -19 14 -215 28 -435 14 -220 32 -437 40 -482 45 -277 248
-428 549 -409 283 18 447 119 516 322 33 96 33 175 1 651 -17 249 -31 455 -31
458 0 5 -21 5 -152 -4z"/>
<path d="M6250 9928 c-117 -356 -211 -650 -207 -654 12 -12 443 -146 517 -160
97 -19 230 -19 304 1 168 44 315 174 396 350 109 237 121 462 33 641 -51 104
-172 218 -303 284 -79 40 -99 48 -335 124 l-191 62 -214 -648z m498 328 c132
-45 198 -83 261 -151 68 -76 91 -140 91 -258 0 -113 -20 -200 -67 -295 -89
-181 -240 -257 -438 -223 -95 17 -255 69 -255 84 0 9 261 801 285 865 6 17 8
16 123 -22z"/>
<path d="M2998 10182 c-269 -125 -488 -230 -488 -235 0 -12 82 -187 88 -187 2
0 87 39 189 87 111 52 187 83 193 77 5 -5 115 -238 244 -518 129 -280 237
-511 240 -513 5 -6 216 93 216 100 0 3 -106 233 -235 512 -129 279 -235 515
-235 524 0 11 57 42 185 100 102 47 185 86 185 87 0 7 -89 194 -92 193 -2 -1
-222 -103 -490 -227z"/>
<path d="M7900 9213 c-212 -300 -388 -552 -393 -559 -5 -8 23 -34 89 -79 80
-56 98 -65 109 -54 17 19 775 1096 775 1102 0 5 -185 137 -192 137 -2 0 -176
-246 -388 -547z"/>
<path d="M1682 9244 c-179 -48 -346 -189 -431 -364 -34 -70 -36 -81 -36 -170
0 -89 2 -99 34 -158 39 -71 118 -149 185 -182 125 -60 252 -24 511 145 139 91
198 118 264 123 74 5 123 -17 158 -70 56 -85 35 -189 -60 -294 -99 -109 -243
-150 -372 -106 l-60 21 -88 -88 -89 -88 49 -31 c147 -94 319 -99 488 -15 139
69 286 220 354 363 33 70 36 82 36 170 0 84 -3 102 -29 154 -37 75 -127 165
-202 202 -51 25 -70 29 -139 28 -101 -1 -180 -32 -361 -145 -143 -88 -232
-133 -283 -143 -48 -9 -102 9 -136 44 -23 24 -30 41 -33 89 -5 74 18 127 83
192 89 89 206 120 317 84 l51 -16 84 83 c45 45 83 86 83 90 0 14 -145 78 -199
88 -71 13 -115 12 -179 -6z"/>
<path d="M9037 8809 c-235 -31 -493 -207 -618 -423 -143 -248 -111 -501 95
-743 90 -107 192 -176 314 -213 63 -19 90 -22 180 -18 201 9 367 90 537 262
82 83 108 116 143 186 97 195 97 353 2 545 -108 218 -286 365 -488 401 -42 7
-81 13 -87 12 -5 0 -40 -4 -78 -9z m256 -277 c64 -29 157 -123 192 -196 58
-119 43 -276 -40 -400 -71 -107 -220 -218 -346 -257 -74 -23 -195 -25 -266 -4
-155 46 -273 229 -261 404 14 185 183 377 406 458 58 20 81 23 167 20 76 -2
112 -8 148 -25z"/>
<path d="M5085 8064 c-231 -12 -502 -54 -755 -118 -945 -239 -1771 -831 -2313
-1657 -280 -426 -477 -920 -571 -1429 -47 -257 -59 -394 -58 -700 0 -375 26
-600 106 -926 273 -1109 1016 -2047 2026 -2559 205 -103 337 -158 555 -230
412 -136 776 -195 1215 -195 552 0 1014 94 1529 310 873 365 1627 1098 2026
1970 172 374 272 724 331 1155 22 161 30 593 15 778 -66 792 -356 1521 -855
2147 -132 166 -428 461 -595 593 -586 465 -1242 743 -1971 837 -160 20 -513
33 -685 24z m660 -723 c618 -94 1146 -329 1615 -719 97 -80 303 -285 384 -382
377 -447 622 -975 715 -1535 33 -202 43 -331 43 -565 -2 -753 -241 -1423 -724
-2024 -105 -130 -335 -359 -463 -461 -220 -176 -542 -368 -785 -468 -249 -103
-556 -183 -835 -218 -229 -28 -671 -23 -890 10 -839 129 -1577 572 -2088 1253
-899 1201 -842 2886 137 4024 539 628 1298 1018 2146 1103 157 16 593 6 745
-18z"/>
<path d="M5300 6701 l0 -351 78 0 c304 0 699 -109 985 -271 400 -228 707 -552
902 -954 132 -270 200 -537 220 -858 l7 -107 346 2 347 3 -3 90 c-16 526 -181
1045 -471 1482 -518 783 -1364 1269 -2278 1310 l-133 6 0 -352z"/>
<path d="M5105 5853 c-422 -54 -809 -255 -1082 -563 -198 -223 -332 -483 -399
-775 -33 -146 -44 -404 -24 -562 48 -386 233 -751 517 -1024 208 -198 433
-327 723 -413 541 -161 1158 -12 1600 386 362 326 583 849 555 1318 -27 464
-208 863 -533 1172 -264 250 -611 414 -972 458 -80 9 -320 12 -385 3z m364
-703 c189 -31 368 -121 513 -259 148 -140 241 -301 290 -498 31 -127 32 -363
1 -480 -63 -235 -190 -426 -376 -565 -190 -141 -418 -208 -661 -195 -323 18
-605 177 -782 443 -62 94 -94 162 -131 283 -26 81 -27 98 -27 281 0 184 1 200
27 283 112 364 402 630 763 701 83 17 295 20 383 6z"/>
<path d="M2403 4020 c23 -452 155 -900 380 -1293 440 -770 1215 -1301 2092
-1432 105 -16 402 -35 411 -26 2 2 4 158 4 347 l0 342 -87 6 c-255 17 -411 46
-613 112 -539 177 -994 569 -1252 1079 -143 283 -219 566 -235 872 l-6 123
-350 0 -350 0 6 -130z"/>
</g>
</svg>
